<mxfile host="65bd71144e">
    <diagram id="P9PiCdYqXZYd0pHwsKMx" name="Page-1">
        <mxGraphModel dx="865" dy="996" grid="1" gridSize="10" guides="1" tooltips="1" connect="1" arrows="1" fold="1" page="1" pageScale="1" pageWidth="850" pageHeight="1100" math="0" shadow="0">
            <root>
                <mxCell id="0"/>
                <mxCell id="1" parent="0"/>
                <mxCell id="88" value="ss" style="group;aspect=fixed;movable=1;resizable=1;rotatable=1;deletable=1;editable=1;connectable=1;" vertex="1" connectable="0" parent="1">
                    <mxGeometry x="20" y="20" width="1110" height="717.94" as="geometry"/>
                </mxCell>
                <mxCell id="53" value="Website Introduction" style="swimlane;whiteSpace=wrap;movable=1;resizable=1;rotatable=1;deletable=1;editable=1;connectable=1;" vertex="1" parent="88">
                    <mxGeometry width="352.6666666666666" height="717.9399999999999" as="geometry"/>
                </mxCell>
                <mxCell id="54" value="" style="ellipse;shape=startState;fillColor=#000000;strokeColor=#ff0000;movable=1;resizable=1;rotatable=1;deletable=1;editable=1;connectable=1;" vertex="1" parent="53">
                    <mxGeometry x="126.08343681964674" y="40.00175438596491" width="28.362524486594733" height="28.363383187209894" as="geometry"/>
                </mxCell>
                <mxCell id="90" value="Continue as&#xA;guest" style="movable=1;resizable=1;rotatable=1;deletable=1;editable=1;connectable=1;fontSize=10;" vertex="1" parent="53">
                    <mxGeometry x="107.32000000000001" y="270.63" width="65.88" height="29.37" as="geometry"/>
                </mxCell>
                <mxCell id="148" style="edgeStyle=orthogonalEdgeStyle;shape=connector;rounded=0;html=1;exitX=1;exitY=0.5;exitDx=0;exitDy=0;entryX=0;entryY=0.5;entryDx=0;entryDy=0;labelBackgroundColor=default;strokeColor=#FF0000;fontFamily=Helvetica;fontSize=10;fontColor=rgb(240, 240, 240);endArrow=open;endFill=1;elbow=horizontal;" edge="1" parent="53" source="92" target="146">
                    <mxGeometry relative="1" as="geometry"/>
                </mxCell>
                <mxCell id="149" value="Yes" style="edgeLabel;html=1;align=center;verticalAlign=middle;resizable=0;points=[];fontSize=10;fontFamily=Helvetica;fontColor=rgb(240, 240, 240);" vertex="1" connectable="0" parent="148">
                    <mxGeometry x="-0.6779" y="-1" relative="1" as="geometry">
                        <mxPoint x="6" y="-1" as="offset"/>
                    </mxGeometry>
                </mxCell>
                <mxCell id="92" value="Valid login&#xA;in cookie?" style="rhombus;fillColor=#18141D;strokeColor=#FFFFFF;movable=1;resizable=1;rotatable=1;deletable=1;editable=1;connectable=1;fontSize=10;" vertex="1" parent="53">
                    <mxGeometry x="95.95751608754277" y="89.99632375161727" width="88.61255882204121" height="53.13140794223825" as="geometry"/>
                </mxCell>
                <mxCell id="93" style="edgeStyle=elbowEdgeStyle;shape=connector;rounded=0;elbow=horizontal;html=1;exitX=0.5;exitY=1;exitDx=0;exitDy=0;entryX=0.5;entryY=0;entryDx=0;entryDy=0;labelBackgroundColor=default;strokeColor=#FF0000;fontFamily=Helvetica;fontSize=12;fontColor=rgb(240, 240, 240);endArrow=open;endFill=1;movable=1;resizable=1;rotatable=1;deletable=1;editable=1;connectable=1;" edge="1" parent="53" source="54" target="92">
                    <mxGeometry relative="1" as="geometry"/>
                </mxCell>
                <mxCell id="152" style="edgeStyle=orthogonalEdgeStyle;shape=connector;rounded=0;html=1;exitX=0.5;exitY=1;exitDx=0;exitDy=0;entryX=0.25;entryY=0;entryDx=0;entryDy=0;labelBackgroundColor=default;strokeColor=#FF0000;fontFamily=Helvetica;fontSize=10;fontColor=rgb(240, 240, 240);endArrow=open;endFill=1;elbow=horizontal;" edge="1" parent="53" source="102" target="166">
                    <mxGeometry relative="1" as="geometry">
                        <mxPoint x="131.70044479269893" y="337.5891396360937" as="targetPoint"/>
                    </mxGeometry>
                </mxCell>
                <mxCell id="102" value="Create account&#xA;using Google" style="movable=1;resizable=1;rotatable=1;deletable=1;editable=1;connectable=1;fontSize=10;" vertex="1" parent="53">
                    <mxGeometry x="16.07" y="270.63" width="79.89" height="29.37" as="geometry"/>
                </mxCell>
                <mxCell id="104" style="edgeStyle=orthogonalEdgeStyle;shape=connector;rounded=0;html=1;exitX=0;exitY=0.5;exitDx=0;exitDy=0;entryX=0.5;entryY=0;entryDx=0;entryDy=0;labelBackgroundColor=default;strokeColor=#FF0000;fontFamily=Helvetica;fontSize=12;fontColor=rgb(240, 240, 240);endArrow=open;endFill=1;elbow=horizontal;movable=1;resizable=1;rotatable=1;deletable=1;editable=1;connectable=1;" edge="1" parent="53" source="103" target="102">
                    <mxGeometry relative="1" as="geometry"/>
                </mxCell>
                <mxCell id="105" style="edgeStyle=orthogonalEdgeStyle;shape=connector;rounded=0;html=1;exitX=0.5;exitY=1;exitDx=0;exitDy=0;entryX=0.5;entryY=0;entryDx=0;entryDy=0;labelBackgroundColor=default;strokeColor=#FF0000;fontFamily=Helvetica;fontSize=12;fontColor=rgb(240, 240, 240);endArrow=open;endFill=1;elbow=horizontal;movable=1;resizable=1;rotatable=1;deletable=1;editable=1;connectable=1;" edge="1" parent="53" source="103" target="90">
                    <mxGeometry relative="1" as="geometry"/>
                </mxCell>
                <mxCell id="103" value="" style="rhombus;fillColor=#18141D;strokeColor=#FFFFFF;movable=1;resizable=1;rotatable=1;deletable=1;editable=1;connectable=1;" vertex="1" parent="53">
                    <mxGeometry x="123.13709408683438" y="202.31893850148828" width="34.25340282345799" height="30.360804538421853" as="geometry"/>
                </mxCell>
                <mxCell id="100" style="edgeStyle=orthogonalEdgeStyle;shape=connector;rounded=0;html=1;exitX=0.5;exitY=1;exitDx=0;exitDy=0;labelBackgroundColor=default;strokeColor=#FF0000;fontFamily=Helvetica;fontSize=12;fontColor=rgb(240, 240, 240);endArrow=open;endFill=1;elbow=horizontal;entryX=0.5;entryY=0;entryDx=0;entryDy=0;movable=1;resizable=1;rotatable=1;deletable=1;editable=1;connectable=1;" edge="1" parent="53" source="92" target="103">
                    <mxGeometry relative="1" as="geometry">
                        <mxPoint x="144.75068210484784" y="194.72873736688285" as="targetPoint"/>
                        <Array as="points">
                            <mxPoint x="140.2" y="143"/>
                            <mxPoint x="140.2" y="202"/>
                        </Array>
                    </mxGeometry>
                </mxCell>
                <mxCell id="101" value="&lt;font style=&quot;font-size: 10px;&quot;&gt;No&lt;/font&gt;" style="edgeLabel;html=1;align=center;verticalAlign=middle;resizable=1;points=[];fontSize=12;fontFamily=Helvetica;fontColor=rgb(240, 240, 240);movable=1;rotatable=1;deletable=1;editable=1;connectable=1;" vertex="1" connectable="0" parent="100">
                    <mxGeometry x="-0.7103" y="-1" relative="1" as="geometry">
                        <mxPoint x="1" y="10" as="offset"/>
                    </mxGeometry>
                </mxCell>
                <mxCell id="150" style="edgeStyle=orthogonalEdgeStyle;shape=connector;rounded=0;html=1;exitX=0.5;exitY=1;exitDx=0;exitDy=0;entryX=0.75;entryY=0;entryDx=0;entryDy=0;labelBackgroundColor=default;strokeColor=#FF0000;fontFamily=Helvetica;fontSize=10;fontColor=rgb(240, 240, 240);endArrow=open;endFill=1;elbow=horizontal;" edge="1" parent="53" source="106" target="166">
                    <mxGeometry relative="1" as="geometry">
                        <mxPoint x="148.82714620442795" y="337.5891396360937" as="targetPoint"/>
                    </mxGeometry>
                </mxCell>
                <mxCell id="106" value="Sign in using&#xA;Google" style="movable=1;resizable=1;rotatable=1;deletable=1;editable=1;connectable=1;fontSize=10;" vertex="1" parent="53">
                    <mxGeometry x="184.57" y="270.63" width="65.79" height="29.37" as="geometry"/>
                </mxCell>
                <mxCell id="107" style="edgeStyle=orthogonalEdgeStyle;shape=connector;rounded=0;html=1;exitX=1;exitY=0.5;exitDx=0;exitDy=0;entryX=0.5;entryY=0;entryDx=0;entryDy=0;labelBackgroundColor=default;strokeColor=#FF0000;fontFamily=Helvetica;fontSize=12;fontColor=rgb(240, 240, 240);endArrow=open;endFill=1;elbow=horizontal;movable=1;resizable=1;rotatable=1;deletable=1;editable=1;connectable=1;" edge="1" parent="53" source="103" target="106">
                    <mxGeometry relative="1" as="geometry"/>
                </mxCell>
                <mxCell id="147" style="edgeStyle=orthogonalEdgeStyle;shape=connector;rounded=0;html=1;exitX=0.5;exitY=1;exitDx=0;exitDy=0;labelBackgroundColor=default;strokeColor=#FF0000;fontFamily=Helvetica;fontSize=10;fontColor=rgb(240, 240, 240);endArrow=open;endFill=1;elbow=horizontal;entryX=1;entryY=0.5;entryDx=0;entryDy=0;" edge="1" parent="53" source="146" target="166">
                    <mxGeometry relative="1" as="geometry">
                        <mxPoint x="157" y="340" as="targetPoint"/>
                        <Array as="points">
                            <mxPoint x="301" y="238"/>
                            <mxPoint x="301" y="350"/>
                        </Array>
                    </mxGeometry>
                </mxCell>
                <mxCell id="146" value="&lt;div&gt;Automatically&lt;/div&gt;&lt;div&gt;sign in&lt;br&gt;&lt;/div&gt;" style="rounded=1;whiteSpace=wrap;html=1;strokeColor=#FFFFFF;fontFamily=Helvetica;fontSize=10;fontColor=rgb(240, 240, 240);fillColor=#18141D;" vertex="1" parent="53">
                    <mxGeometry x="263.20333333333315" y="96.56" width="76.26" height="40" as="geometry"/>
                </mxCell>
                <mxCell id="165" value="&lt;b&gt;Sign in Menu&lt;br&gt;&lt;/b&gt;" style="text;html=1;align=center;verticalAlign=middle;resizable=0;points=[];autosize=1;fontSize=10;fontFamily=Helvetica;" vertex="1" parent="53">
                    <mxGeometry x="140" y="190" width="90" height="30" as="geometry"/>
                </mxCell>
                <mxCell id="177" style="edgeStyle=orthogonalEdgeStyle;shape=connector;rounded=0;html=1;exitX=0.5;exitY=1;exitDx=0;exitDy=0;entryX=0.5;entryY=0;entryDx=0;entryDy=0;labelBackgroundColor=default;strokeColor=#FF0000;fontFamily=Helvetica;fontSize=9.5;fontColor=rgb(240, 240, 240);endArrow=open;endFill=1;elbow=horizontal;" edge="1" parent="53" source="166" target="176">
                    <mxGeometry relative="1" as="geometry"/>
                </mxCell>
                <mxCell id="166" value="" style="rounded=1;whiteSpace=wrap;html=1;strokeColor=#FFFFFF;fontFamily=Helvetica;fontSize=10;fontColor=rgb(240, 240, 240);fillColor=#000000;" vertex="1" parent="53">
                    <mxGeometry x="117.26" y="340" width="46" height="10" as="geometry"/>
                </mxCell>
                <mxCell id="151" style="edgeStyle=orthogonalEdgeStyle;shape=connector;rounded=0;html=1;exitX=0.5;exitY=1;exitDx=0;exitDy=0;labelBackgroundColor=default;strokeColor=#FF0000;fontFamily=Helvetica;fontSize=10;fontColor=rgb(240, 240, 240);endArrow=open;endFill=1;elbow=horizontal;entryX=0.5;entryY=0;entryDx=0;entryDy=0;" edge="1" parent="53" source="90" target="166">
                    <mxGeometry relative="1" as="geometry">
                        <mxPoint x="139.99310344827592" y="330" as="targetPoint"/>
                    </mxGeometry>
                </mxCell>
                <mxCell id="179" style="edgeStyle=orthogonalEdgeStyle;shape=connector;rounded=0;html=1;exitX=0;exitY=0.5;exitDx=0;exitDy=0;entryX=0;entryY=0;entryDx=0;entryDy=0;labelBackgroundColor=default;strokeColor=#FF0000;fontFamily=Helvetica;fontSize=9.5;fontColor=rgb(240, 240, 240);endArrow=open;endFill=1;elbow=horizontal;" edge="1" parent="53" source="175" target="176">
                    <mxGeometry relative="1" as="geometry">
                        <Array as="points">
                            <mxPoint x="80" y="475"/>
                            <mxPoint x="80" y="370"/>
                            <mxPoint x="132" y="370"/>
                        </Array>
                    </mxGeometry>
                </mxCell>
                <mxCell id="175" value="View Past Orders" style="movable=1;resizable=1;rotatable=1;deletable=1;editable=1;connectable=1;fontSize=10;" vertex="1" parent="53">
                    <mxGeometry x="95.96" y="460" width="88.4" height="29.37" as="geometry"/>
                </mxCell>
                <mxCell id="178" style="edgeStyle=orthogonalEdgeStyle;shape=connector;rounded=0;html=1;exitX=0.5;exitY=1;exitDx=0;exitDy=0;entryX=0.5;entryY=0;entryDx=0;entryDy=0;labelBackgroundColor=default;strokeColor=#FF0000;fontFamily=Helvetica;fontSize=9.5;fontColor=rgb(240, 240, 240);endArrow=open;endFill=1;elbow=horizontal;" edge="1" parent="53" source="176" target="175">
                    <mxGeometry relative="1" as="geometry">
                        <Array as="points">
                            <mxPoint x="140" y="440"/>
                            <mxPoint x="140" y="440"/>
                        </Array>
                    </mxGeometry>
                </mxCell>
                <mxCell id="180" value="View past orders" style="edgeLabel;html=1;align=center;verticalAlign=middle;resizable=0;points=[];fontSize=9.5;fontFamily=Helvetica;fontColor=rgb(240, 240, 240);" vertex="1" connectable="0" parent="178">
                    <mxGeometry x="-0.7053" relative="1" as="geometry">
                        <mxPoint y="4" as="offset"/>
                    </mxGeometry>
                </mxCell>
                <mxCell id="176" value="" style="rhombus;fillColor=#18141D;strokeColor=#FFFFFF;movable=1;resizable=1;rotatable=1;deletable=1;editable=1;connectable=1;" vertex="1" parent="53">
                    <mxGeometry x="123.1370940868344" y="389.9989385014883" width="34.25340282345799" height="30.360804538421853" as="geometry"/>
                </mxCell>
                <mxCell id="62" value="Searching" style="swimlane;whiteSpace=wrap;movable=1;resizable=1;rotatable=1;deletable=1;editable=1;connectable=1;" vertex="1" parent="88">
                    <mxGeometry x="352.6666666666666" width="357.33" height="717.9399999999999" as="geometry"/>
                </mxCell>
                <mxCell id="191" style="edgeStyle=orthogonalEdgeStyle;shape=connector;rounded=0;html=1;exitX=0.5;exitY=1;exitDx=0;exitDy=0;entryX=0.652;entryY=0.083;entryDx=0;entryDy=0;entryPerimeter=0;labelBackgroundColor=default;strokeColor=#FF0000;fontFamily=Helvetica;fontSize=9.5;fontColor=rgb(240, 240, 240);endArrow=open;endFill=1;elbow=horizontal;" edge="1" parent="62" source="112" target="189">
                    <mxGeometry relative="1" as="geometry"/>
                </mxCell>
                <mxCell id="112" value="Apply filter" style="movable=1;resizable=1;rotatable=1;deletable=1;editable=1;connectable=1;fontSize=10;" vertex="1" parent="62">
                    <mxGeometry x="111.54333333333345" y="250" width="65.79" height="29.37" as="geometry"/>
                </mxCell>
                <mxCell id="168" style="edgeStyle=orthogonalEdgeStyle;shape=connector;rounded=0;html=1;exitX=0;exitY=0.5;exitDx=0;exitDy=0;entryX=1;entryY=0.5;entryDx=0;entryDy=0;labelBackgroundColor=default;strokeColor=#FF0000;fontFamily=Helvetica;fontSize=10;fontColor=rgb(240, 240, 240);endArrow=open;endFill=1;elbow=horizontal;" edge="1" parent="62" source="142" target="154">
                    <mxGeometry relative="1" as="geometry"/>
                </mxCell>
                <mxCell id="185" style="edgeStyle=orthogonalEdgeStyle;shape=connector;rounded=0;html=1;exitX=0;exitY=1;exitDx=0;exitDy=0;entryX=0.5;entryY=0;entryDx=0;entryDy=0;labelBackgroundColor=default;strokeColor=#FF0000;fontFamily=Helvetica;fontSize=9.5;fontColor=rgb(240, 240, 240);endArrow=open;endFill=1;elbow=horizontal;" edge="1" parent="62" source="142" target="159">
                    <mxGeometry relative="1" as="geometry">
                        <Array as="points">
                            <mxPoint x="168" y="220"/>
                            <mxPoint x="64" y="220"/>
                        </Array>
                    </mxGeometry>
                </mxCell>
                <mxCell id="186" style="edgeStyle=orthogonalEdgeStyle;shape=connector;rounded=0;html=1;exitX=0.5;exitY=1;exitDx=0;exitDy=0;entryX=0.5;entryY=0;entryDx=0;entryDy=0;labelBackgroundColor=default;strokeColor=#FF0000;fontFamily=Helvetica;fontSize=9.5;fontColor=rgb(240, 240, 240);endArrow=open;endFill=1;elbow=horizontal;" edge="1" parent="62" source="142" target="112">
                    <mxGeometry relative="1" as="geometry">
                        <Array as="points">
                            <mxPoint x="176" y="230"/>
                            <mxPoint x="144" y="230"/>
                        </Array>
                    </mxGeometry>
                </mxCell>
                <mxCell id="187" style="edgeStyle=orthogonalEdgeStyle;shape=connector;rounded=0;html=1;exitX=1;exitY=1;exitDx=0;exitDy=0;entryX=0.5;entryY=0;entryDx=0;entryDy=0;labelBackgroundColor=default;strokeColor=#FF0000;fontFamily=Helvetica;fontSize=9.5;fontColor=rgb(240, 240, 240);endArrow=open;endFill=1;elbow=horizontal;" edge="1" parent="62" source="142" target="161">
                    <mxGeometry relative="1" as="geometry">
                        <Array as="points">
                            <mxPoint x="185" y="220"/>
                            <mxPoint x="222" y="220"/>
                        </Array>
                    </mxGeometry>
                </mxCell>
                <mxCell id="207" style="edgeStyle=orthogonalEdgeStyle;shape=connector;rounded=0;html=1;exitX=0.85;exitY=0.669;exitDx=0;exitDy=0;entryX=0.5;entryY=0;entryDx=0;entryDy=0;labelBackgroundColor=default;strokeColor=#FF0000;fontFamily=Helvetica;fontSize=9.5;fontColor=rgb(240, 240, 240);endArrow=open;endFill=1;elbow=horizontal;exitPerimeter=0;" edge="1" parent="62" source="142" target="206">
                    <mxGeometry relative="1" as="geometry">
                        <Array as="points">
                            <mxPoint x="188" y="200"/>
                            <mxPoint x="294" y="200"/>
                        </Array>
                    </mxGeometry>
                </mxCell>
                <mxCell id="142" value="" style="rhombus;fillColor=#18141D;strokeColor=#FFFFFF;movable=1;resizable=1;rotatable=1;deletable=1;editable=1;connectable=1;" vertex="1" parent="62">
                    <mxGeometry x="159.21042742016783" y="164.3689385014883" width="34.25340282345799" height="30.360804538421853" as="geometry"/>
                </mxCell>
                <mxCell id="144" value="&lt;b&gt;Search Menu&lt;br&gt;&lt;/b&gt;" style="text;html=1;align=center;verticalAlign=middle;resizable=0;points=[];autosize=1;fontSize=10;fontFamily=Helvetica;" vertex="1" parent="62">
                    <mxGeometry x="199.46333333333342" y="90" width="90" height="30" as="geometry"/>
                </mxCell>
                <mxCell id="190" style="edgeStyle=orthogonalEdgeStyle;shape=connector;rounded=0;html=1;exitX=0.5;exitY=1;exitDx=0;exitDy=0;entryX=0.25;entryY=0;entryDx=0;entryDy=0;labelBackgroundColor=default;strokeColor=#FF0000;fontFamily=Helvetica;fontSize=9.5;fontColor=rgb(240, 240, 240);endArrow=open;endFill=1;elbow=horizontal;" edge="1" parent="62" source="159" target="189">
                    <mxGeometry relative="1" as="geometry"/>
                </mxCell>
                <mxCell id="159" value="Search by name" style="movable=1;resizable=1;rotatable=1;deletable=1;editable=1;connectable=1;fontSize=9.5;" vertex="1" parent="62">
                    <mxGeometry x="27.33" y="250" width="72.67" height="29.37" as="geometry"/>
                </mxCell>
                <mxCell id="173" style="edgeStyle=orthogonalEdgeStyle;shape=connector;rounded=0;html=1;exitX=0.5;exitY=1;exitDx=0;exitDy=0;entryX=0.5;entryY=0;entryDx=0;entryDy=0;labelBackgroundColor=default;strokeColor=#FF0000;fontFamily=Helvetica;fontSize=10;fontColor=rgb(240, 240, 240);endArrow=open;endFill=1;elbow=horizontal;" edge="1" parent="62" source="161" target="172">
                    <mxGeometry relative="1" as="geometry">
                        <Array as="points">
                            <mxPoint x="222" y="360"/>
                            <mxPoint x="182" y="360"/>
                        </Array>
                    </mxGeometry>
                </mxCell>
                <mxCell id="161" value="View card" style="movable=1;resizable=1;rotatable=1;deletable=1;editable=1;connectable=1;fontSize=10;" vertex="1" parent="62">
                    <mxGeometry x="186" y="250" width="72.67" height="29.37" as="geometry"/>
                </mxCell>
                <mxCell id="154" value="Sign out" style="movable=1;resizable=1;rotatable=1;deletable=1;editable=1;connectable=1;fontSize=10;" vertex="1" parent="62">
                    <mxGeometry x="52.33333333333343" y="165.36" width="65.79" height="29.37" as="geometry"/>
                </mxCell>
                <mxCell id="196" style="edgeStyle=orthogonalEdgeStyle;shape=connector;rounded=0;html=1;exitX=0.5;exitY=1;exitDx=0;exitDy=0;entryX=0.5;entryY=0;entryDx=0;entryDy=0;labelBackgroundColor=default;strokeColor=#FF0000;fontFamily=Helvetica;fontSize=9.5;fontColor=rgb(240, 240, 240);endArrow=open;endFill=1;elbow=horizontal;" edge="1" parent="62" source="170" target="194">
                    <mxGeometry relative="1" as="geometry"/>
                </mxCell>
                <mxCell id="170" value="Add to cart" style="movable=1;resizable=1;rotatable=1;deletable=1;editable=1;connectable=1;fontSize=10;" vertex="1" parent="62">
                    <mxGeometry x="119.53999999999992" y="490" width="72.67" height="29.37" as="geometry"/>
                </mxCell>
                <mxCell id="197" style="edgeStyle=orthogonalEdgeStyle;shape=connector;rounded=0;html=1;exitX=0.5;exitY=1;exitDx=0;exitDy=0;entryX=0.75;entryY=0;entryDx=0;entryDy=0;labelBackgroundColor=default;strokeColor=#FF0000;fontFamily=Helvetica;fontSize=9.5;fontColor=rgb(240, 240, 240);endArrow=open;endFill=1;elbow=horizontal;" edge="1" parent="62" source="171" target="194">
                    <mxGeometry relative="1" as="geometry"/>
                </mxCell>
                <mxCell id="171" value="Remove from cart" style="movable=1;resizable=1;rotatable=1;deletable=1;editable=1;connectable=1;fontSize=10;" vertex="1" parent="62">
                    <mxGeometry x="199.79" y="490" width="90" height="29.37" as="geometry"/>
                </mxCell>
                <mxCell id="182" style="edgeStyle=orthogonalEdgeStyle;shape=connector;rounded=0;html=1;exitX=0;exitY=1;exitDx=0;exitDy=0;entryX=0.5;entryY=0;entryDx=0;entryDy=0;labelBackgroundColor=default;strokeColor=#FF0000;fontFamily=Helvetica;fontSize=9.5;fontColor=rgb(240, 240, 240);endArrow=open;endFill=1;elbow=horizontal;" edge="1" parent="62" source="172" target="174">
                    <mxGeometry relative="1" as="geometry">
                        <Array as="points">
                            <mxPoint x="174" y="460"/>
                            <mxPoint x="74" y="460"/>
                        </Array>
                    </mxGeometry>
                </mxCell>
                <mxCell id="183" style="edgeStyle=orthogonalEdgeStyle;shape=connector;rounded=0;html=1;exitX=0.5;exitY=1;exitDx=0;exitDy=0;entryX=0.5;entryY=0;entryDx=0;entryDy=0;labelBackgroundColor=default;strokeColor=#FF0000;fontFamily=Helvetica;fontSize=9.5;fontColor=rgb(240, 240, 240);endArrow=open;endFill=1;elbow=horizontal;" edge="1" parent="62" source="172" target="170">
                    <mxGeometry relative="1" as="geometry">
                        <Array as="points">
                            <mxPoint x="183" y="470"/>
                            <mxPoint x="156" y="470"/>
                        </Array>
                    </mxGeometry>
                </mxCell>
                <mxCell id="184" style="edgeStyle=orthogonalEdgeStyle;shape=connector;rounded=0;html=1;exitX=1;exitY=1;exitDx=0;exitDy=0;entryX=0.5;entryY=0;entryDx=0;entryDy=0;labelBackgroundColor=default;strokeColor=#FF0000;fontFamily=Helvetica;fontSize=9.5;fontColor=rgb(240, 240, 240);endArrow=open;endFill=1;elbow=horizontal;" edge="1" parent="62" source="172" target="171">
                    <mxGeometry relative="1" as="geometry">
                        <Array as="points">
                            <mxPoint x="191.33" y="470"/>
                            <mxPoint x="244.33" y="470"/>
                        </Array>
                    </mxGeometry>
                </mxCell>
                <mxCell id="202" style="edgeStyle=orthogonalEdgeStyle;shape=connector;rounded=0;html=1;exitX=1;exitY=0.5;exitDx=0;exitDy=0;entryX=0;entryY=0.5;entryDx=0;entryDy=0;labelBackgroundColor=default;strokeColor=#FF0000;fontFamily=Helvetica;fontSize=9.5;fontColor=rgb(240, 240, 240);endArrow=open;endFill=1;elbow=horizontal;" edge="1" parent="62" source="172" target="201">
                    <mxGeometry relative="1" as="geometry"/>
                </mxCell>
                <mxCell id="172" value="" style="rhombus;fillColor=#18141D;strokeColor=#FFFFFF;movable=1;resizable=1;rotatable=1;deletable=1;editable=1;connectable=1;" vertex="1" parent="62">
                    <mxGeometry x="165.54042742016784" y="419.9989385014883" width="34.25340282345799" height="30.360804538421853" as="geometry"/>
                </mxCell>
                <mxCell id="195" style="edgeStyle=orthogonalEdgeStyle;shape=connector;rounded=0;html=1;exitX=0.5;exitY=1;exitDx=0;exitDy=0;entryX=0.25;entryY=0;entryDx=0;entryDy=0;labelBackgroundColor=default;strokeColor=#FF0000;fontFamily=Helvetica;fontSize=9.5;fontColor=rgb(240, 240, 240);endArrow=open;endFill=1;elbow=horizontal;" edge="1" parent="62" source="174" target="194">
                    <mxGeometry relative="1" as="geometry"/>
                </mxCell>
                <mxCell id="174" value="View card info" style="movable=1;resizable=1;rotatable=1;deletable=1;editable=1;connectable=1;fontSize=10;" vertex="1" parent="62">
                    <mxGeometry x="37.65999999999998" y="490" width="72.67" height="29.37" as="geometry"/>
                </mxCell>
                <mxCell id="181" value="&lt;b&gt;Card Menu&lt;br&gt;&lt;/b&gt;" style="text;html=1;align=center;verticalAlign=middle;resizable=0;points=[];autosize=1;fontSize=10;fontFamily=Helvetica;" vertex="1" parent="62">
                    <mxGeometry x="182.66333333333344" y="410" width="80" height="30" as="geometry"/>
                </mxCell>
                <mxCell id="192" style="edgeStyle=orthogonalEdgeStyle;shape=connector;rounded=0;html=1;exitX=1;exitY=0.5;exitDx=0;exitDy=0;entryX=1;entryY=0.5;entryDx=0;entryDy=0;labelBackgroundColor=default;strokeColor=#FF0000;fontFamily=Helvetica;fontSize=9.5;fontColor=rgb(240, 240, 240);endArrow=open;endFill=1;elbow=horizontal;" edge="1" parent="62" source="189" target="142">
                    <mxGeometry relative="1" as="geometry">
                        <Array as="points">
                            <mxPoint x="327" y="315"/>
                            <mxPoint x="327" y="180"/>
                        </Array>
                    </mxGeometry>
                </mxCell>
                <mxCell id="189" value="" style="rounded=1;whiteSpace=wrap;html=1;strokeColor=#FFFFFF;fontFamily=Helvetica;fontSize=10;fontColor=rgb(240, 240, 240);fillColor=#000000;" vertex="1" parent="62">
                    <mxGeometry x="80.66333333333341" y="310" width="46" height="10" as="geometry"/>
                </mxCell>
                <mxCell id="199" style="edgeStyle=orthogonalEdgeStyle;shape=connector;rounded=0;html=1;exitX=0;exitY=0.5;exitDx=0;exitDy=0;entryX=0;entryY=0;entryDx=0;entryDy=0;labelBackgroundColor=default;strokeColor=#FF0000;fontFamily=Helvetica;fontSize=9.5;fontColor=rgb(240, 240, 240);endArrow=open;endFill=1;elbow=horizontal;" edge="1" parent="62" source="194" target="172">
                    <mxGeometry relative="1" as="geometry">
                        <Array as="points">
                            <mxPoint x="27.33" y="585"/>
                            <mxPoint x="27.33" y="400"/>
                            <mxPoint x="174.33" y="400"/>
                        </Array>
                    </mxGeometry>
                </mxCell>
                <mxCell id="194" value="" style="rounded=1;whiteSpace=wrap;html=1;strokeColor=#FFFFFF;fontFamily=Helvetica;fontSize=10;fontColor=rgb(240, 240, 240);fillColor=#000000;" vertex="1" parent="62">
                    <mxGeometry x="132.87333333333348" y="580" width="46" height="10" as="geometry"/>
                </mxCell>
                <mxCell id="209" style="edgeStyle=orthogonalEdgeStyle;shape=connector;rounded=0;html=1;exitX=1;exitY=0.5;exitDx=0;exitDy=0;entryX=1;entryY=0;entryDx=0;entryDy=0;labelBackgroundColor=default;strokeColor=#FF0000;fontFamily=Helvetica;fontSize=9.5;fontColor=rgb(240, 240, 240);endArrow=open;endFill=1;elbow=horizontal;" edge="1" parent="62" source="201" target="142">
                    <mxGeometry relative="1" as="geometry">
                        <Array as="points">
                            <mxPoint x="340" y="435"/>
                            <mxPoint x="340" y="150"/>
                            <mxPoint x="185" y="150"/>
                        </Array>
                    </mxGeometry>
                </mxCell>
                <mxCell id="201" value="Exit card menu" style="movable=1;resizable=1;rotatable=1;deletable=1;editable=1;connectable=1;fontSize=10;" vertex="1" parent="62">
                    <mxGeometry x="259" y="420.49" width="71.33" height="29.37" as="geometry"/>
                </mxCell>
                <mxCell id="206" value="Go to cart" style="movable=1;resizable=1;rotatable=1;deletable=1;editable=1;connectable=1;fontSize=10;" vertex="1" parent="62">
                    <mxGeometry x="267.34" y="250" width="52.66" height="29.37" as="geometry"/>
                </mxCell>
                <mxCell id="81" value="Ordering" style="swimlane;whiteSpace=wrap;movable=1;resizable=1;rotatable=1;deletable=1;editable=1;connectable=1;" vertex="1" parent="88">
                    <mxGeometry x="705.33" width="404.67" height="717.94" as="geometry"/>
                </mxCell>
                <mxCell id="85" value="" style="ellipse;shape=endState;fillColor=#000000;strokeColor=#ff0000;movable=1;resizable=1;rotatable=1;deletable=1;editable=1;connectable=1;" vertex="1" parent="81">
                    <mxGeometry x="119.15809523809521" y="661.0019298245614" width="37.78571428571429" height="37.786315789473676" as="geometry"/>
                </mxCell>
                <mxCell id="113" value="Return to search" style="movable=1;resizable=1;rotatable=1;deletable=1;editable=1;connectable=1;fontSize=10;" vertex="1" parent="81">
                    <mxGeometry x="20" y="160" width="75.13" height="29.37" as="geometry"/>
                </mxCell>
                <mxCell id="137" style="edgeStyle=orthogonalEdgeStyle;shape=connector;rounded=0;html=1;exitX=0.5;exitY=1;exitDx=0;exitDy=0;entryX=0.75;entryY=0;entryDx=0;entryDy=0;labelBackgroundColor=default;strokeColor=#FF0000;fontFamily=Helvetica;fontSize=10;fontColor=rgb(240, 240, 240);endArrow=open;endFill=1;elbow=horizontal;" edge="1" parent="81" source="114" target="211">
                    <mxGeometry relative="1" as="geometry">
                        <mxPoint x="144.38381287109485" y="227.5891396360937" as="targetPoint"/>
                    </mxGeometry>
                </mxCell>
                <mxCell id="114" value="Clear cart" style="movable=1;resizable=1;rotatable=1;deletable=1;editable=1;connectable=1;fontSize=10;" vertex="1" parent="81">
                    <mxGeometry x="182.62666666666686" y="160" width="65.79" height="29.37" as="geometry"/>
                </mxCell>
                <mxCell id="135" style="edgeStyle=orthogonalEdgeStyle;shape=connector;rounded=0;html=1;exitX=0.5;exitY=1;exitDx=0;exitDy=0;entryX=0.5;entryY=0;entryDx=0;entryDy=0;labelBackgroundColor=default;strokeColor=#FF0000;fontFamily=Helvetica;fontSize=10;fontColor=rgb(240, 240, 240);endArrow=open;endFill=1;elbow=horizontal;" edge="1" parent="81" source="115" target="211">
                    <mxGeometry relative="1" as="geometry">
                        <mxPoint x="135.82046216523042" y="219.99893850148817" as="targetPoint"/>
                    </mxGeometry>
                </mxCell>
                <mxCell id="115" value="Change item&#xA;quantity" style="movable=1;resizable=1;rotatable=1;deletable=1;editable=1;connectable=1;fontSize=10;" vertex="1" parent="81">
                    <mxGeometry x="102.92666666666688" y="160" width="65.79" height="29.37" as="geometry"/>
                </mxCell>
                <mxCell id="119" style="edgeStyle=orthogonalEdgeStyle;shape=connector;rounded=0;html=1;exitX=0.5;exitY=1;exitDx=0;exitDy=0;entryX=0.5;entryY=0;entryDx=0;entryDy=0;labelBackgroundColor=default;strokeColor=#FF0000;fontFamily=Helvetica;fontSize=10;fontColor=rgb(240, 240, 240);endArrow=open;endFill=1;elbow=horizontal;" edge="1" parent="81" source="118" target="85">
                    <mxGeometry relative="1" as="geometry"/>
                </mxCell>
                <mxCell id="118" value="Send email" style="movable=1;resizable=1;rotatable=1;deletable=1;editable=1;connectable=1;fontSize=10;" vertex="1" parent="81">
                    <mxGeometry x="97.92" y="600" width="80.26" height="29.37" as="geometry"/>
                </mxCell>
                <mxCell id="125" style="edgeStyle=orthogonalEdgeStyle;shape=connector;rounded=0;html=1;entryX=0.5;entryY=0;entryDx=0;entryDy=0;labelBackgroundColor=default;strokeColor=#FF0000;fontFamily=Helvetica;fontSize=10;fontColor=rgb(240, 240, 240);endArrow=open;endFill=1;elbow=horizontal;exitX=0.5;exitY=1;exitDx=0;exitDy=0;" edge="1" parent="81" source="221" target="118">
                    <mxGeometry relative="1" as="geometry">
                        <mxPoint x="138.05" y="561" as="sourcePoint"/>
                    </mxGeometry>
                </mxCell>
                <mxCell id="224" value="Submit order" style="edgeLabel;html=1;align=center;verticalAlign=middle;resizable=0;points=[];fontSize=9.5;fontFamily=Helvetica;fontColor=rgb(240, 240, 240);" vertex="1" connectable="0" parent="125">
                    <mxGeometry x="-0.3525" y="-3" relative="1" as="geometry">
                        <mxPoint as="offset"/>
                    </mxGeometry>
                </mxCell>
                <mxCell id="220" style="edgeStyle=orthogonalEdgeStyle;shape=connector;rounded=0;html=1;exitX=0.5;exitY=1;exitDx=0;exitDy=0;entryX=0.5;entryY=0;entryDx=0;entryDy=0;labelBackgroundColor=default;strokeColor=#FF0000;fontFamily=Helvetica;fontSize=9.5;fontColor=rgb(240, 240, 240);endArrow=open;endFill=1;elbow=horizontal;" edge="1" parent="81" source="120" target="221">
                    <mxGeometry relative="1" as="geometry">
                        <mxPoint x="138.05" y="501" as="targetPoint"/>
                    </mxGeometry>
                </mxCell>
                <mxCell id="120" value="Modify Email" style="movable=1;resizable=1;rotatable=1;deletable=1;editable=1;connectable=1;fontSize=10;" vertex="1" parent="81">
                    <mxGeometry x="97.91999999999994" y="451" width="80.26" height="29.37" as="geometry"/>
                </mxCell>
                <mxCell id="219" style="edgeStyle=orthogonalEdgeStyle;shape=connector;rounded=0;html=1;exitX=0.5;exitY=1;exitDx=0;exitDy=0;entryX=0.5;entryY=0;entryDx=0;entryDy=0;labelBackgroundColor=default;strokeColor=#FF0000;fontFamily=Helvetica;fontSize=9.5;fontColor=rgb(240, 240, 240);endArrow=open;endFill=1;elbow=horizontal;" edge="1" parent="81" source="121" target="120">
                    <mxGeometry relative="1" as="geometry"/>
                </mxCell>
                <mxCell id="121" value="&lt;div&gt;Auto-compose&lt;/div&gt;&lt;div&gt;email&lt;/div&gt;" style="rounded=1;whiteSpace=wrap;html=1;strokeColor=#FFFFFF;fontFamily=Helvetica;fontSize=10;fontColor=rgb(240, 240, 240);fillColor=#18141D;" vertex="1" parent="81">
                    <mxGeometry x="99.92" y="361" width="76.26" height="40" as="geometry"/>
                </mxCell>
                <mxCell id="130" style="edgeStyle=orthogonalEdgeStyle;shape=connector;rounded=0;html=1;exitX=0;exitY=0.5;exitDx=0;exitDy=0;entryX=0.5;entryY=0;entryDx=0;entryDy=0;labelBackgroundColor=default;strokeColor=#FF0000;fontFamily=Helvetica;fontSize=10;fontColor=rgb(240, 240, 240);endArrow=open;endFill=1;elbow=horizontal;" edge="1" parent="81" source="129" target="113">
                    <mxGeometry relative="1" as="geometry"/>
                </mxCell>
                <mxCell id="131" style="edgeStyle=orthogonalEdgeStyle;shape=connector;rounded=0;html=1;exitX=0.5;exitY=1;exitDx=0;exitDy=0;entryX=0.5;entryY=0;entryDx=0;entryDy=0;labelBackgroundColor=default;strokeColor=#FF0000;fontFamily=Helvetica;fontSize=10;fontColor=rgb(240, 240, 240);endArrow=open;endFill=1;elbow=horizontal;" edge="1" parent="81" source="129" target="115">
                    <mxGeometry relative="1" as="geometry"/>
                </mxCell>
                <mxCell id="132" style="edgeStyle=orthogonalEdgeStyle;shape=connector;rounded=0;html=1;exitX=1;exitY=1;exitDx=0;exitDy=0;entryX=0.5;entryY=0;entryDx=0;entryDy=0;labelBackgroundColor=default;strokeColor=#FF0000;fontFamily=Helvetica;fontSize=10;fontColor=rgb(240, 240, 240);endArrow=open;endFill=1;elbow=horizontal;" edge="1" parent="81" source="129" target="114">
                    <mxGeometry relative="1" as="geometry">
                        <Array as="points">
                            <mxPoint x="144" y="140"/>
                            <mxPoint x="216" y="140"/>
                        </Array>
                    </mxGeometry>
                </mxCell>
                <mxCell id="214" style="edgeStyle=orthogonalEdgeStyle;shape=connector;rounded=0;html=1;exitX=1;exitY=0.5;exitDx=0;exitDy=0;entryX=0.5;entryY=0;entryDx=0;entryDy=0;labelBackgroundColor=default;strokeColor=#FF0000;fontFamily=Helvetica;fontSize=9.5;fontColor=rgb(240, 240, 240);endArrow=open;endFill=1;elbow=horizontal;" edge="1" parent="81" source="129" target="213">
                    <mxGeometry relative="1" as="geometry"/>
                </mxCell>
                <mxCell id="129" value="" style="rhombus;fillColor=#18141D;strokeColor=#FFFFFF;movable=1;resizable=1;rotatable=1;deletable=1;editable=1;connectable=1;" vertex="1" parent="81">
                    <mxGeometry x="118.69376075350121" y="99.99893850148828" width="34.25340282345799" height="30.360804538421853" as="geometry"/>
                </mxCell>
                <mxCell id="133" value="&lt;b&gt;Cart Menu&lt;/b&gt;" style="text;html=1;align=center;verticalAlign=middle;resizable=0;points=[];autosize=1;fontSize=10;fontFamily=Helvetica;" vertex="1" parent="81">
                    <mxGeometry x="144.6666666666668" y="90" width="70" height="30" as="geometry"/>
                </mxCell>
                <mxCell id="212" style="edgeStyle=orthogonalEdgeStyle;shape=connector;rounded=0;html=1;exitX=1;exitY=0.5;exitDx=0;exitDy=0;labelBackgroundColor=default;strokeColor=#FF0000;fontFamily=Helvetica;fontSize=9.5;fontColor=rgb(240, 240, 240);endArrow=open;endFill=1;elbow=horizontal;entryX=0.5;entryY=0;entryDx=0;entryDy=0;" edge="1" parent="81" source="211" target="129">
                    <mxGeometry relative="1" as="geometry">
                        <mxPoint x="135.66666666666686" y="100" as="targetPoint"/>
                        <Array as="points">
                            <mxPoint x="355" y="245"/>
                            <mxPoint x="355" y="70"/>
                            <mxPoint x="136" y="70"/>
                        </Array>
                    </mxGeometry>
                </mxCell>
                <mxCell id="211" value="" style="rounded=1;whiteSpace=wrap;html=1;strokeColor=#FFFFFF;fontFamily=Helvetica;fontSize=10;fontColor=rgb(240, 240, 240);fillColor=#000000;" vertex="1" parent="81">
                    <mxGeometry x="112.82666666666685" y="240" width="46" height="10" as="geometry"/>
                </mxCell>
                <mxCell id="215" style="edgeStyle=orthogonalEdgeStyle;shape=connector;rounded=0;html=1;exitX=0.5;exitY=1;exitDx=0;exitDy=0;entryX=0.5;entryY=0;entryDx=0;entryDy=0;labelBackgroundColor=default;strokeColor=#FF0000;fontFamily=Helvetica;fontSize=9.5;fontColor=rgb(240, 240, 240);endArrow=open;endFill=1;elbow=horizontal;" edge="1" parent="81" source="213" target="121">
                    <mxGeometry relative="1" as="geometry">
                        <Array as="points">
                            <mxPoint x="302" y="310"/>
                            <mxPoint x="138" y="310"/>
                        </Array>
                    </mxGeometry>
                </mxCell>
                <mxCell id="213" value="Go to checkout" style="movable=1;resizable=1;rotatable=1;deletable=1;editable=1;connectable=1;fontSize=10;" vertex="1" parent="81">
                    <mxGeometry x="264.67" y="160" width="75.33" height="29.37" as="geometry"/>
                </mxCell>
                <mxCell id="222" style="edgeStyle=orthogonalEdgeStyle;shape=connector;rounded=0;html=1;exitX=1;exitY=0.5;exitDx=0;exitDy=0;labelBackgroundColor=default;strokeColor=#FF0000;fontFamily=Helvetica;fontSize=9.5;fontColor=rgb(240, 240, 240);endArrow=open;endFill=1;elbow=horizontal;entryX=1;entryY=0;entryDx=0;entryDy=0;" edge="1" parent="81" source="221" target="129">
                    <mxGeometry relative="1" as="geometry">
                        <mxPoint x="174.66666666666686" y="380" as="targetPoint"/>
                        <Array as="points">
                            <mxPoint x="375" y="531"/>
                            <mxPoint x="375" y="80"/>
                            <mxPoint x="144" y="80"/>
                        </Array>
                    </mxGeometry>
                </mxCell>
                <mxCell id="223" value="Return to cart" style="edgeLabel;html=1;align=center;verticalAlign=middle;resizable=0;points=[];fontSize=9.5;fontFamily=Helvetica;fontColor=rgb(240, 240, 240);" vertex="1" connectable="0" parent="222">
                    <mxGeometry x="-0.8773" relative="1" as="geometry">
                        <mxPoint x="-10" as="offset"/>
                    </mxGeometry>
                </mxCell>
                <mxCell id="225" style="edgeStyle=orthogonalEdgeStyle;shape=connector;rounded=0;html=1;exitX=0;exitY=0.5;exitDx=0;exitDy=0;entryX=0;entryY=0.5;entryDx=0;entryDy=0;labelBackgroundColor=default;strokeColor=#FF0000;fontFamily=Helvetica;fontSize=9.5;fontColor=rgb(240, 240, 240);endArrow=open;endFill=1;elbow=horizontal;" edge="1" parent="81" source="221" target="121">
                    <mxGeometry relative="1" as="geometry">
                        <Array as="points">
                            <mxPoint x="25" y="531"/>
                            <mxPoint x="25" y="381"/>
                        </Array>
                    </mxGeometry>
                </mxCell>
                <mxCell id="226" value="Undo changes" style="edgeLabel;html=1;align=center;verticalAlign=middle;resizable=0;points=[];fontSize=9.5;fontFamily=Helvetica;fontColor=rgb(240, 240, 240);" vertex="1" connectable="0" parent="225">
                    <mxGeometry x="-0.5737" y="-1" relative="1" as="geometry">
                        <mxPoint x="22" as="offset"/>
                    </mxGeometry>
                </mxCell>
                <mxCell id="221" value="" style="rhombus;fillColor=#18141D;strokeColor=#FFFFFF;movable=1;resizable=1;rotatable=1;deletable=1;editable=1;connectable=1;" vertex="1" parent="81">
                    <mxGeometry x="120.92376075350121" y="515.9989385014882" width="34.25340282345799" height="30.360804538421853" as="geometry"/>
                </mxCell>
                <mxCell id="158" style="edgeStyle=orthogonalEdgeStyle;shape=connector;rounded=0;html=1;entryX=0;entryY=0;entryDx=0;entryDy=0;labelBackgroundColor=default;strokeColor=#FF0000;fontFamily=Helvetica;fontSize=10;fontColor=rgb(240, 240, 240);endArrow=open;endFill=1;elbow=horizontal;exitX=1;exitY=0.5;exitDx=0;exitDy=0;" edge="1" parent="88" source="176" target="142">
                    <mxGeometry relative="1" as="geometry">
                        <mxPoint x="140" y="410" as="sourcePoint"/>
                        <Array as="points">
                            <mxPoint x="360" y="405"/>
                            <mxPoint x="360" y="140"/>
                            <mxPoint x="520" y="140"/>
                            <mxPoint x="520" y="172"/>
                        </Array>
                    </mxGeometry>
                </mxCell>
                <mxCell id="162" value="Continue to shopping cart" style="edgeLabel;html=1;align=center;verticalAlign=middle;resizable=0;points=[];fontSize=10;fontFamily=Helvetica;fontColor=rgb(240, 240, 240);" vertex="1" connectable="0" parent="158">
                    <mxGeometry x="-0.7624" y="-2" relative="1" as="geometry">
                        <mxPoint x="1" y="-5" as="offset"/>
                    </mxGeometry>
                </mxCell>
                <mxCell id="169" style="edgeStyle=orthogonalEdgeStyle;shape=connector;rounded=0;html=1;exitX=0;exitY=0.5;exitDx=0;exitDy=0;labelBackgroundColor=default;strokeColor=#FF0000;fontFamily=Helvetica;fontSize=10;fontColor=rgb(240, 240, 240);endArrow=open;endFill=1;elbow=horizontal;entryX=1;entryY=0;entryDx=0;entryDy=0;" edge="1" parent="88" source="154" target="103">
                    <mxGeometry relative="1" as="geometry">
                        <mxPoint x="132" y="210" as="targetPoint"/>
                    </mxGeometry>
                </mxCell>
                <mxCell id="208" style="edgeStyle=orthogonalEdgeStyle;shape=connector;rounded=0;html=1;exitX=1;exitY=0.5;exitDx=0;exitDy=0;entryX=0;entryY=0;entryDx=0;entryDy=0;labelBackgroundColor=default;strokeColor=#FF0000;fontFamily=Helvetica;fontSize=9.5;fontColor=rgb(240, 240, 240);endArrow=open;endFill=1;elbow=horizontal;" edge="1" parent="88" source="206" target="129">
                    <mxGeometry relative="1" as="geometry">
                        <Array as="points">
                            <mxPoint x="720" y="265"/>
                            <mxPoint x="720" y="70"/>
                            <mxPoint x="833" y="70"/>
                        </Array>
                    </mxGeometry>
                </mxCell>
                <mxCell id="216" style="edgeStyle=orthogonalEdgeStyle;shape=connector;rounded=0;html=1;exitX=0.5;exitY=1;exitDx=0;exitDy=0;entryX=0.5;entryY=0;entryDx=0;entryDy=0;labelBackgroundColor=default;strokeColor=#FF0000;fontFamily=Helvetica;fontSize=9.5;fontColor=rgb(240, 240, 240);endArrow=open;endFill=1;elbow=horizontal;" edge="1" parent="88" source="113" target="142">
                    <mxGeometry relative="1" as="geometry">
                        <Array as="points">
                            <mxPoint x="763" y="230"/>
                            <mxPoint x="610" y="230"/>
                            <mxPoint x="610" y="130"/>
                            <mxPoint x="529" y="130"/>
                        </Array>
                    </mxGeometry>
                </mxCell>
            </root>
        </mxGraphModel>
    </diagram>
</mxfile>